# xmcd
# 
# Track frame offsets:
#     150
#     13857
#     25851
#     38986
#     50474
#     62308
#     75971
#     93323
#     104796
#     115545
#     127686
#     149701
#     164062
#     178963
#     192961
#     205834
#     218808
#     233063
#     245493
#     257578
#     268011
#     282570
#     294793
#     308524
#     323158
# 
# Disc length: 4505
# 
# Revision: 2
# Processed by: cddbd v1.5.2PL0 Copyright (c) Steve Scherf et al.
# Submitted via: fre:ac v1.0.31
# 
DISCID=65119719
DTITLE=Percy Sledge - The Atlantic Recordings Disc 3
DYEAR=2010
DGENRE=R&B
TTITLE0=Sudden Stop (single version)
TTITLE1=Between These Arms (single version)
TTITLE2=You're All Around Me
TTITLE3=Self Preservation
TTITLE4=Wanted
TTITLE5=Bless Your Little Sweet Soul
TTITLE6=Any Day Now
TTITLE7=The Angels Listened In
TTITLE8=Standing on the Mountain
TTITLE9=Keep Your Arms Around Me
TTITLE10=Kind Woman
TTITLE11=Woman of the Night
TTITLE12=Push Mr. Pride Aside (single version)
TTITLE13=Baby, Baby, Baby
TTITLE14=True Love Travels on a Gravel Road
TTITLE15=Faithful and True
TTITLE16=Too Many Rivers to Cross
TTITLE17=Set Me Free
TTITLE18=Cotton Mill Man
TTITLE19=Love's Where Life Begins
TTITLE20=Let it Be Me
TTITLE21=Blow Out the Sun
TTITLE22=I've Gotta Get a Message to You
TTITLE23=Stop the World Tonight
TTITLE24=Help Me Make it Through the Night
EXTD=
EXTT0=
EXTT1=
EXTT2=
EXTT3=
EXTT4=
EXTT5=
EXTT6=
EXTT7=
EXTT8=
EXTT9=
EXTT10=
EXTT11=
EXTT12=
EXTT13=
EXTT14=
EXTT15=
EXTT16=
EXTT17=
EXTT18=
EXTT19=
EXTT20=
EXTT21=
EXTT22=
EXTT23=
EXTT24=
PLAYORDER=
